<svg id="Layer_1" xmlns="http://www.w3.org/2000/svg" version="1.1" viewBox="0 0 896.4 152.8">
  
  <defs>
    <style>
      .st0 {
        fill: #231f20;
        font-family: MyriadPro-Regular, 'Myriad Pro';
        font-size: 12px;
      }

      .st1 {
        fill: #30c5f4;
      }

      .st2 {
        fill: #191919;
      }

      .st3 {
        display: none;
      }
    </style>
  </defs>
  <path class="st1" d="M68,52.9c1.9.3,2.3,0,2.5-1.9.4-2.8,1.4-7.4,3.7-12.1,2.5-5.1,6.5-10.8,12-14.5,4.7-3.1,12.3-6.6,18.3-7.9,4.9-1,9.4-1.2,13.3-.9,8,.7,12.4,3,14.7,6,.8,1.1,1.3,2.5,1.3,3.4,0,1.5-.6,3.4-2.7,5.3-2.1,1.8-6.4,4.1-12.4,6.1-6.2,2.1-14.7,4.3-23.2,6.2-7.1,1.6-11.1,3-14.5,4.2-5.6,1.9-7.3,7.5-3.8,9.2,5,2.5,8.2,5,10.9,7.2,4,3.3,8.7,7.2,14.5,14.2,5.3,6.4,13.9,18.7,17,30.7,3.4,13.1,1.3,25.5-6.1,29-7.3,3.4-16.9-1.5-23.7-8.6-6.5-6.7-11-14.6-15.2-26.7-3.7-10.4-5.2-25.6-5.2-33.5,0-2.6,0-3.2,0-5.6.2-2.1-5.3-3.8-11.4,0-6.8,4.4-13.5,12.4-17.5,17-1.7,2-4.1,5-6.5,8.1-3.3,4.1-6.9,8.4-10.1,10.7-4.9,3.6-12.9,5.1-18.4,1.1-3.1-2.2-4.7-6.4-4.8-10.6,0-3,.7-5.7,2.2-8.4,1.9-3.3,4.9-6.8,9.8-10.8,5-4.1,13-8.8,21.1-12,12.3-4.9,25.4-6.5,34.2-4.9"></path>
  <g>
    <path class="st2" d="M174.6,107.7c-7.5,0-10.3-4.4-10.3-10.3v-37.9h-7.6c-.7,0-.7-1.2-.7-2.2s0-2.3.7-2.3h7.6v-13.1c0-.6,1.7-.6,2.7-.6s2.7,0,2.7.6v13.1h11.8c.6,0,.6,1.1.6,2.3s0,2.2-.6,2.2h-11.8v37.7c0,4.2,1.8,5.8,6.2,5.8h5.5c.7,0,.9.2.9,2.2s-.2,2.5-.9,2.5h-6.8Z"></path>
    <path class="st2" d="M195.1,83.3v5.2c0,9.6,5.1,15.5,15.4,15.5s12.5-2.1,16.4-4.2c.8-.4,3.3,3.9,2.3,4.5-5.1,2.9-11.4,4.6-18.5,4.6-13.2,0-21-7.4-21-20v-16.5c0-12.2,8.6-20,19.9-20s20.5,7.8,20.5,21.1v9.8h-35ZM224.7,73c0-10.7-6.9-15.9-15.1-15.9s-14.5,5.2-14.5,15.6v6.2h29.6v-5.9Z"></path>
    <path class="st2" d="M252.5,107.7c-7.4,0-10.3-4.4-10.3-10.3V33.4c0-.6,1.7-.6,2.7-.6s2.7,0,2.7.6v63.8c0,4.2,1.9,5.9,6.3,5.9h2.7c.7,0,.9.2.9,2.2s-.2,2.4-.9,2.4h-4.1Z"></path>
    <path class="st2" d="M269.3,83.3v5.2c0,9.6,5.1,15.5,15.4,15.5s12.5-2.1,16.4-4.2c.8-.4,3.3,3.9,2.3,4.5-5.1,2.9-11.4,4.6-18.5,4.6-13.2,0-21-7.4-21-20v-16.5c0-12.2,8.6-20,19.9-20s20.5,7.8,20.5,21.1v9.8h-35ZM298.9,73c0-10.7-6.9-15.9-15.1-15.9s-14.5,5.2-14.5,15.6v6.2h29.6v-5.9Z"></path>
    <path class="st2" d="M352.3,108.1c-1,0-2.7,0-2.7-.6v-36.7c0-8.9-3.9-13-10.4-13s-13.3,5.9-17.2,11.6v38.1c0,.6-1.7.6-2.7.6s-2.7,0-2.7-.6v-53.8c0-.6,1.7-.6,2.7-.6s2.6,0,2.6.6v9.7c4.3-6.1,10.9-11,18.9-11s14.2,6.5,14.2,16v39.1c0,.6-1.7.6-2.7.6Z"></path>
    <path class="st2" d="M366.5,89.4v-17.5c0-12.6,7.6-19.5,20.8-19.5s21,6.9,21,19.5v17.5c0,12.5-7.7,19.5-21,19.5s-20.8-7-20.8-19.5ZM387.3,57.3c-9.6,0-15.4,4.1-15.4,15.5v15.7c0,11.3,5.8,15.6,15.4,15.6s15.6-4.1,15.6-15.6v-15.7c0-11.3-5.9-15.5-15.6-15.5Z"></path>
    <path class="st2" d="M439.5,58.9c-4.4,0-8.1,4-13.6,12.4v36.2c0,.6-1.7.6-2.7.6s-2.6,0-2.6-.6v-53.8c0-.6,1.6-.6,2.6-.6s2.5,0,2.5.6v12.1c6-9.1,9.2-12.5,15.2-12.5h2c.6,0,.6,1.9.6,2.9s-.2,2.7-.8,2.7h-3.2Z"></path>
  </g>
  <g class="st3">
    <path class="st2" d="M524.5,104.8c-.8-.5,1.6-5.1,2.4-4.6,3.5,2,8.5,3.9,13.1,3.9,7.6,0,12.2-5,12.2-10.6,0-15.3-26.7-10.8-26.7-27.9s6.1-13.2,16.4-13.2,10.5,1.3,12.8,2.3c.9.5-.9,4.9-1.5,4.7-3.7-1.3-6.6-2.2-11.7-2.2s-10.6,4-10.6,8.5c0,11.8,26.7,8.9,26.7,27.7s-6.2,15.5-17.6,15.5-11.8-1.9-15.5-4.1Z"></path>
    <path class="st2" d="M601.4,108.1c-1,0-2.6,0-2.6-.6v-5.9c-3.4,3.1-9.6,7.3-17.3,7.3s-17.1-6.1-17.1-16.1v-2.6c0-12.4,10.8-17.7,34.3-14.5v-4.4c0-9.9-3.8-13.9-13.1-13.9s-10.6,1.1-14.7,3.3c-1.2.7-3.1-4.3-1.8-4.9,3.8-1.8,10.4-3.4,16.7-3.4,12.7,0,18.3,6.7,18.3,18.5v36.6c0,.6-1.7.6-2.7.6ZM598.7,80c-20.4-2.9-28.9.9-28.9,10.3v2.5c0,7.6,5.7,11.2,12.5,11.2s12.5-3.4,16.4-7.4v-16.6Z"></path>
    <path class="st2" d="M630.2,107.7c-7.5,0-10.3-4.4-10.3-10.3v-37.9h-7.6c-.7,0-.7-1.2-.7-2.2s0-2.3.7-2.3h7.6v-13.1c0-.6,1.7-.6,2.7-.6s2.7,0,2.7.6v13.1h11.8c.6,0,.6,1.1.6,2.3s0,2.2-.6,2.2h-11.8v37.7c0,4.2,1.8,5.8,6.2,5.8h5.5c.7,0,.9.2.9,2.2s-.2,2.5-.9,2.5h-6.8Z"></path>
    <path class="st2" d="M650.7,83.3v5.2c0,9.6,5.1,15.5,15.4,15.5s12.5-2.1,16.4-4.2c.8-.4,3.3,3.9,2.3,4.5-5.1,2.9-11.4,4.6-18.5,4.6-13.2,0-21-7.4-21-20v-16.5c0-12.2,8.6-20,19.9-20s20.5,7.8,20.5,21.1v9.8h-35ZM680.3,73c0-10.7-6.9-15.9-15.1-15.9s-14.5,5.2-14.5,15.6v6.2h29.6v-5.9Z"></path>
    <path class="st2" d="M708.1,107.7c-7.4,0-10.3-4.4-10.3-10.3V33.4c0-.6,1.7-.6,2.7-.6s2.7,0,2.7.6v63.8c0,4.2,1.9,5.9,6.3,5.9h2.7c.7,0,.9.2.9,2.2s-.2,2.4-.9,2.4h-4.1Z"></path>
    <path class="st2" d="M730.9,107.7c-7.4,0-10.3-4.4-10.3-10.3V33.4c0-.6,1.7-.6,2.7-.6s2.7,0,2.7.6v63.8c0,4.2,1.9,5.9,6.3,5.9h2.7c.7,0,.9.2.9,2.2s-.2,2.4-.9,2.4h-4.1Z"></path>
    <path class="st2" d="M743.6,44v-10.6c0-.6,1.7-.6,2.7-.6s2.7,0,2.7.6v10.6c0,.6-1.7.6-2.7.6s-2.7,0-2.7-.6ZM743.6,107.5v-53.8c0-.6,1.7-.6,2.7-.6s2.7,0,2.7.6v53.8c0,.6-1.7.6-2.7.6s-2.7,0-2.7-.6Z"></path>
    <path class="st2" d="M775.9,107.7c-7.5,0-10.3-4.4-10.3-10.3v-37.9h-7.6c-.7,0-.7-1.2-.7-2.2s0-2.3.7-2.3h7.6v-13.1c0-.6,1.7-.6,2.7-.6s2.7,0,2.7.6v13.1h11.8c.6,0,.6,1.1.6,2.3s0,2.2-.6,2.2h-11.8v37.7c0,4.2,1.8,5.8,6.2,5.8h5.5c.7,0,.9.2.9,2.2s-.2,2.5-.9,2.5h-6.8Z"></path>
    <path class="st2" d="M796.4,83.3v5.2c0,9.6,5.1,15.5,15.4,15.5s12.5-2.1,16.4-4.2c.8-.4,3.3,3.9,2.3,4.5-5.1,2.9-11.4,4.6-18.5,4.6-13.2,0-21-7.4-21-20v-16.5c0-12.2,8.6-20,19.9-20s20.5,7.8,20.5,21.1v9.8h-35ZM826,73c0-10.7-6.9-15.9-15.1-15.9s-14.5,5.2-14.5,15.6v6.2h29.6v-5.9Z"></path>
  </g>
  <path class="st2" d="M486,152.8c-1.2,0-2.1-.9-2.1-2.1V2.1c0-1.2.9-2.1,2.1-2.1s2.1.9,2.1,2.1v148.6c0,1.2-.9,2.1-2.1,2.1Z"></path>
  <g>
    <path class="st2" d="M566,108.6c-1,0-2.6,0-2.6-.6v-5.9c-3.4,3.1-9.6,7.3-17.3,7.3s-17.1-6.1-17.1-16.1v-2.6c0-12.4,10.8-17.7,34.3-14.5v-4.4c0-9.9-3.8-13.9-13.1-13.9s-10.6,1.1-14.7,3.3c-1.2.7-3.1-4.3-1.8-4.9,3.8-1.8,10.4-3.4,16.7-3.4,12.7,0,18.3,6.7,18.3,18.5v36.6c0,.6-1.7.6-2.7.6ZM563.3,80.5c-20.4-2.9-28.9.9-28.9,10.3v2.5c0,7.6,5.7,11.2,12.5,11.2s12.5-3.4,16.4-7.4v-16.6Z"></path>
    <path class="st2" d="M583,44.5v-10.6c0-.6,1.7-.6,2.7-.6s2.7,0,2.7.6v10.6c0,.6-1.7.6-2.7.6s-2.7,0-2.7-.6ZM583,108v-53.8c0-.6,1.7-.6,2.7-.6s2.7,0,2.7.6v53.8c0,.6-1.7.6-2.7.6s-2.7,0-2.7-.6Z"></path>
    <path class="st2" d="M639.2,60h-9.2v48c0,.6-1.7.6-2.7.6s-2.7,0-2.7-.6v-48h-7.4c-.6,0-.6-1.3-.6-2.3s0-2.2.6-2.2h7.4v-10.8c0-6.5,3.9-11,10.6-11h5.6c.4,0,.6.2.6,2.4s-.2,2.3-.6,2.3h-4.8c-4.3,0-6,2.7-6,7.3v9.8h9.2c.6,0,.6,1.2.6,2.2s0,2.3-.6,2.3Z"></path>
    <path class="st2" d="M682.5,108.6c-1,0-2.6,0-2.6-.6v-5.9c-3.4,3.1-9.6,7.3-17.3,7.3s-17.1-6.1-17.1-16.1v-2.6c0-12.4,10.8-17.7,34.3-14.5v-4.4c0-9.9-3.8-13.9-13.1-13.9s-10.6,1.1-14.7,3.3c-1.2.7-3.1-4.3-1.8-4.9,3.8-1.8,10.4-3.4,16.7-3.4,12.7,0,18.3,6.7,18.3,18.5v36.6c0,.6-1.7.6-2.7.6ZM679.8,80.5c-20.4-2.9-28.9.9-28.9,10.3v2.5c0,7.6,5.7,11.2,12.5,11.2s12.5-3.4,16.4-7.4v-16.6Z"></path>
    <path class="st2" d="M697.3,89.9v-17.5c0-12.6,7.6-19.5,20-19.5s12.2,2.4,16.6,5.6c1.3,1-1.3,5.1-2.3,4.3-1.3-.9-6.9-5.1-13.9-5.1s-15,5.1-15,15.6v15.7c0,10.4,5.4,15.6,15,15.6s11.5-3.1,14.3-5.2c1-.8,3.4,3,2.5,3.8-3.3,3.1-10,6.2-17.2,6.2-12.4,0-20-7-20-19.5Z"></path>
    <path class="st2" d="M757.3,108.2c-7.5,0-10.3-4.4-10.3-10.3v-37.9h-7.6c-.7,0-.7-1.2-.7-2.2s0-2.3.7-2.3h7.6v-13.1c0-.6,1.7-.6,2.7-.6s2.7,0,2.7.6v13.1h11.8c.6,0,.6,1.1.6,2.3s0,2.2-.6,2.2h-11.8v37.7c0,4.2,1.8,5.8,6.2,5.8h5.5c.7,0,.9.2.9,2.2s-.2,2.5-.9,2.5h-6.8Z"></path>
    <path class="st2" d="M773.9,89.9v-17.5c0-12.6,7.6-19.5,20.8-19.5s21,6.9,21,19.5v17.5c0,12.5-7.7,19.5-21,19.5s-20.8-7-20.8-19.5ZM794.7,57.8c-9.6,0-15.4,4.1-15.4,15.5v15.7c0,11.3,5.8,15.6,15.4,15.6s15.6-4.1,15.6-15.6v-15.7c0-11.3-5.9-15.5-15.6-15.5Z"></path>
    <path class="st2" d="M847.4,59.4c-4.4,0-8.1,4-13.6,12.4v36.2c0,.6-1.7.6-2.7.6s-2.6,0-2.6-.6v-53.8c0-.6,1.6-.6,2.6-.6s2.5,0,2.5.6v12.1c6-9.1,9.2-12.5,15.2-12.5h2c.6,0,.6,1.9.6,2.9s-.2,2.7-.8,2.7h-3.2Z"></path>
    <path class="st2" d="M870.5,127.7c-.2.6-1.9.6-2.9.6s-3.1,0-2.9-.6l7.2-20.1-18.8-53.4c-.2-.6,1.9-.6,2.9-.6s2.8,0,3,.6l15.8,46.7,15.5-46.7c.2-.6,2.1-.6,3.1-.6s3.1.1,2.9.6l-25.8,73.5Z"></path>
  </g>
  <text></text>
  <text class="st0" transform="translate(666.6 -66.3)"><tspan x="0" y="0">Lorem ipsum</tspan></text>
  <text class="st0" transform="translate(1052.6 -68.9)"><tspan x="0" y="0">Lorem ipsum</tspan></text>
</svg>